<?xml version="1.0" encoding="utf-8"?>
<!-- Generator: Adobe Illustrator 28.3.0, SVG Export Plug-In . SVG Version: 6.00 Build 0)  -->
<svg version="1.1" id="Layer_1" xmlns="http://www.w3.org/2000/svg" xmlns:xlink="http://www.w3.org/1999/xlink" x="0px" y="0px"
	 viewBox="0 0 779 47" style="enable-background:new 0 0 779 47;" xml:space="preserve">
<style type="text/css">
	.st0{fill:none;stroke:#000000;stroke-width:8;stroke-linecap:round;stroke-linejoin:round;}
</style>
<g>
	<path class="st0" d="M23.13,22.3c0.67,0.16,4.13-2.71,4.93-2.53c7.28,1.7-15.56,13.84-7.66,15.68c4.41,1.03,35.25-21.4,39.7-20.36
		c8.91,2.08-17.16,14.67-9.27,16.51c3.38,0.79,17.13-12.59,22.22-11.4c5.65,1.32-6.76,10.91-0.98,12.26
		c4.54,1.06,31.85-17.71,33.69-17.28c5.97,1.39-10.41,12.15-3.78,13.69c1.59,0.37,24.6-15.45,28.4-14.57
		c7.01,1.64-18.13,16.74-12.35,18.09c3.54,0.83,27.52-17.21,31.67-16.24c5.56,1.3-22,17.65-14.78,19.33
		c4.18,0.97,41.14-23.3,44.09-22.61c4.25,0.99-21.25,17.8-14.75,19.32c2.45,0.57,28.01-16.95,31.48-16.14
		c6.25,1.46-16.54,17.47-12.83,18.34c2.4,0.56,33.15-18.57,35.25-18.08c3.53,0.82-4.19,11.34-0.76,12.14
		c3.54,0.83,26.63-16.48,30.41-15.6c7.51,1.75-23.82,19.98-18.47,21.23c2.63,0.61,29.85-17.44,32.71-16.78
		c8.46,1.97-10.35,13.43-5.48,14.57c5.03,1.17,19.54-13.61,24.35-12.49c5.91,1.38-7.1,10.66-0.75,12.14
		c3.22,0.75,30.79-19.6,35.89-18.41c6.57,1.53-20.41,17.16-13.62,18.74c4.59,1.07,28.5-16.77,31.39-16.1
		c7.19,1.68-11.33,11.64-3.39,13.49c1.59,0.37,27.34-17.27,31.69-16.26c8.41,1.96-17.4,17.76-13.49,18.67
		c3.32,0.77,23.21-14.2,26.29-13.48c4.6,1.07-2.27,10.16,1.43,11.02c3.48,0.81,17.78-10.8,20.04-10.28
		c6,1.4-16.87,15.54-10.35,17.06c2.15,0.5,36.62-22.32,41.37-21.22c6.62,1.54-11.24,11.9-3.71,13.66
		c3.98,0.93,27.08-16.09,30.02-15.4c8.93,2.08-16.38,14-8.13,15.92c2.42,0.56,19.76-11.46,21.53-11.04
		c7.82,1.83-14.52,14.08-7.65,15.68c3.94,0.92,25-15.43,28.5-14.62c5.79,1.35-5.44,12.23-2.33,12.95
		c4.41,1.03,32.69-20.1,37.16-19.06c4.16,0.97-28.27,17.48-16.51,20.22c2.62,0.61,32.54-19.92,36.87-18.91
		c7.49,1.75-21.44,15.46-11.66,17.74c2.59,0.6,34.12-19.22,36.43-18.68c7.72,1.8-17.69,17.51-13.25,18.55
		c4.19,0.98,29.52-18.21,33.63-17.25c2.77,0.65-11.75,12.5-4.68,14.15c3.14,0.73,26.78-14.92,28.37-14.55
		c5.61,1.31-14.15,14.72-8.4,16.06c1.96,0.46,15.94-10.01,18.4-9.44c3.47,0.81,4.65,7.08,7.71,7.8c2.47,0.58,17.1-12.42,21.99-11.28
		c5,1.17-7.3,11.87-2.44,13.01c2.36,0.55,30.77-17.1,32.54-16.69c3.32,0.78-17.53,14.51-9.17,16.46c2.9,0.68,20.71-14.08,25.35-13
		c9.82,2.29-16.96,16.72-11.97,17.89c2.67,0.62,28.97-18.69,34.11-17.49c5.24,1.22-9,11.74-2.79,13.18
		c4.11,0.96,26.42-16.09,29.82-15.3c7.23,1.69-7.87,13.48-4.78,14.21c1.52,0.35,20.59-12.26,22.87-11.73"/>
</g>
</svg>
