<?xml version="1.0" encoding="UTF-8"?>
<svg id="Layer_1" data-name="Layer 1" xmlns="http://www.w3.org/2000/svg" xmlns:xlink="http://www.w3.org/1999/xlink" viewBox="0 0 262 249">
  <defs>
    <style>
      .cls-1 {
        fill: url(#radial-gradient);
        filter: url(#drop-shadow-1);
        stroke-width: 0px;
      }
    </style>
    <radialGradient id="radial-gradient" cx="132.8" cy="122.68" fx="132.8" fy="122.68" r="115.38" gradientUnits="userSpaceOnUse">
      <stop offset=".27" stop-color="#ffdf3f"/>
      <stop offset="1" stop-color="#ff952a"/>
    </radialGradient>
    <filter id="drop-shadow-1" filterUnits="userSpaceOnUse">
      <feOffset dx="-2" dy="2"/>
      <feGaussianBlur result="blur" stdDeviation="4"/>
      <feFlood flood-color="#544b17" flood-opacity="1"/>
      <feComposite in2="blur" operator="in"/>
      <feComposite in="SourceGraphic"/>
    </filter>
  </defs>
  <path class="cls-1" d="M141.05,16.36l22.04,67.28c1.17,3.56,4.49,5.98,8.25,5.98h71.17c8.42,0,11.91,10.79,5.07,15.72l-57.46,41.41c-3.07,2.21-4.35,6.15-3.17,9.74l21.97,67.09c2.61,7.98-6.5,14.65-13.32,9.74l-57.73-41.6c-3.03-2.18-7.12-2.18-10.15,0l-57.73,41.6c-6.81,4.91-15.93-1.76-13.32-9.74l21.97-67.09c1.18-3.59-.11-7.53-3.17-9.74l-57.46-41.41c-6.83-4.92-3.35-15.72,5.07-15.72h71.17c3.75,0,7.08-2.41,8.25-5.98l22.04-67.28c2.61-7.97,13.88-7.97,16.49,0Z"/>
</svg>